# xmcd CD database file
#
# Track frame offsets:
#	150
#	18863
#	41598
#	75495
#	99070
#	113723
#	135465
#	161720
#	188975
#	210955
#	235325
#	261923
#	281620
#	308123
#
# Disc length: 4316 seconds
#
# Revision: 4
# Processed by: cddbd v1.5.2PL0 Copyright (c) Steve Scherf et al.
# Submitted via: CDex 2.03
#
DISCID=ad10da0e
DTITLE=Imagination - FlashBack
DYEAR=1995
DGENRE=Disco
TTITLE0=FlashBack
TTITLE1=Musik And Lights
TTITLE2=Instinctual
TTITLE3=In The Heat Of The Night
TTITLE4=State Of Love
TTITLE5=Heart 'N' Soul
TTITLE6=Changes
TTITLE7=Body Talk
TTITLE8=Burnin' Up
TTITLE9=In And Out Of Love
TTITLE10=Looking At Midnight
TTITLE11=New Dimensions
TTITLE12=Just An Illusion
TTITLE13=Thank You My Love
EXTD=YEAR: 1995
EXTT0=
EXTT1=
EXTT2=
EXTT3=
EXTT4=
EXTT5=
EXTT6=
EXTT7=
EXTT8=
EXTT9=
EXTT10=
EXTT11=
EXTT12=
EXTT13=
PLAYORDER=
